Coordinates
version=1
nRows=43
nColumns=12
inDegrees=yes

Units are S.I. units (second, meters, Newtons, ...)
Angles are in degrees

endheader
time	SC_y	SC_z	SC_x	AC_y	AC_z	AC_x	GH_y	GH_z	GH_yy	EL_x	PS_y
       0.0              -56.12          11.83           65.7          44.77         -13.59          2.554          -70.0          70.54         -138.2          130.6          148.0
   0.04246              -56.12          11.83          65.69          44.77          -13.6          2.551         -69.99          70.53         -138.2          130.6          148.0
   0.08493              -56.11          11.84          65.68          44.77          -13.6          2.548         -69.98          70.52         -138.2          130.6          148.0
    0.1274              -56.11          11.84          65.67          44.77          -13.6          2.545         -69.98          70.51         -138.2          130.6          148.0
    0.1699               -56.1          11.84          65.67          44.77          -13.6          2.542         -69.97          70.49         -138.2          130.6          148.0
    0.2123               -56.1          11.84          65.66          44.77          -13.6          2.538         -69.96          70.48         -138.2          130.5          147.9
    0.2548              -56.09          11.84          65.65          44.77          -13.6          2.534         -69.95          70.47         -138.2          130.5          147.9
    0.2972              -56.09          11.84          65.64          44.77          -13.6           2.53         -69.94          70.45         -138.2          130.5          147.9
    0.3397              -56.08          11.84          65.63          44.77          -13.6          2.526         -69.94          70.44         -138.2          130.5          147.9
    0.3822              -56.07          11.84          65.61          44.77          -13.6          2.521         -69.93          70.42         -138.2          130.4          147.9
    0.4246              -56.07          11.85           65.6          44.77          -13.6          2.516         -69.91           70.4         -138.2          130.4          147.9
    0.4671              -56.06          11.85          65.59          44.77         -13.61           2.51          -69.9          70.38         -138.2          130.4          147.9
    0.5096              -56.05          11.85          65.57          44.77         -13.61          2.504         -69.89          70.36         -138.2          130.3          147.8
     0.552              -56.04          11.85          65.56          44.77         -13.61          2.498         -69.88          70.34         -138.2          130.3          147.8
    0.5945              -56.03          11.85          65.54          44.77         -13.61          2.491         -69.86          70.32         -138.2          130.2          147.8
    0.6369              -56.02          11.86          65.52          44.77         -13.61          2.484         -69.85          70.29         -138.2          130.2          147.8
    0.6794               -56.0          11.86           65.5          44.77         -13.61          2.475         -69.83          70.26         -138.3          130.1          147.8
    0.7219              -55.99          11.86          65.48          44.77         -13.62          2.467         -69.81          70.23         -138.3          130.1          147.7
    0.7643              -55.98          11.87          65.45          44.77         -13.62          2.457         -69.79          70.19         -138.3          130.0          147.7
    0.8068              -55.96          11.87          65.43          44.78         -13.62          2.446         -69.77          70.16         -138.3          130.0          147.7
    0.8493              -55.94          11.87           65.4          44.78         -13.62          2.434         -69.74          70.12         -138.3          129.9          147.7
    0.8917              -55.92          11.88          65.37          44.78         -13.63          2.422         -69.72          70.07         -138.3          129.8          147.6
    0.9342               -55.9          11.88          65.33          44.78         -13.63          2.407         -69.69          70.02         -138.3          129.7          147.6
    0.9766              -55.88          11.89          65.29          44.78         -13.63          2.392         -69.65          69.97         -138.3          129.6          147.5
     1.019              -55.85          11.89          65.25          44.78         -13.64          2.374         -69.62           69.9         -138.4          129.5          147.5
     1.062              -55.82           11.9           65.2          44.78         -13.64          2.355         -69.58          69.84         -138.4          129.4          147.4
     1.104              -55.79          11.91          65.15          44.78         -13.65          2.333         -69.53          69.76         -138.4          129.3          147.4
     1.146              -55.75          11.92          65.08          44.78         -13.66          2.308         -69.48          69.67         -138.4          129.1          147.3
     1.189              -55.71          11.92          65.02          44.78         -13.66           2.28         -69.42          69.57         -138.5          128.9          147.2
     1.231              -55.66          11.93          64.94          44.78         -13.67          2.249         -69.35          69.46         -138.5          128.7          147.1
     1.274              -55.61          11.95          64.85          44.78         -13.68          2.213         -69.28          69.34         -138.5          128.5          147.0
     1.316              -55.55          11.96          64.75          44.78         -13.69          2.171         -69.19          69.19         -138.6          128.2          146.9
     1.359              -55.48          11.98          64.63          44.78          -13.7          2.123         -69.09          69.02         -138.6          127.9          146.8
     1.401              -55.39           12.0          64.49          44.78         -13.71          2.068         -68.98          68.83         -138.7          127.6          146.6
     1.444              -55.29          12.02          64.33          44.78         -13.73          2.003         -68.84           68.6         -138.8          127.2          146.4
     1.486              -55.18          12.04          64.14          44.78         -13.75          1.926         -68.68          68.33         -138.9          126.7          146.2
     1.529              -55.04          12.07          63.91          44.78         -13.77          1.835         -68.49          68.01         -139.0          126.1          146.0
     1.571              -54.88          12.11          63.64          44.78          -13.8          1.726         -68.26          67.63         -139.1          125.5          145.7
     1.614              -54.68          12.15          63.31          44.78         -13.83          1.594         -67.99          67.17         -139.2          124.6          145.3
     1.656              -54.44          12.21          62.91          44.78         -13.87          1.433         -67.65           66.6         -139.4          123.6          144.8
     1.699              -54.14          12.27          62.42          44.78         -13.92          1.234         -67.23           65.9         -139.6          122.4          144.3
     1.741              -53.77          12.36           61.8          44.79         -13.98         0.9861         -66.71          65.03         -139.9          120.9          143.6
     1.783               -53.3          12.46          61.03          44.79         -14.06         0.6736         -66.06          63.93         -140.3          118.9          142.7
